Coordinates
version=1
nRows=19
nColumns=24
inDegrees=yes

Units are S.I. units (second, meters, Newtons, ...)
Angles are in degrees.

endheader
time	pelvis_tilt	pelvis_list	pelvis_rotation	pelvis_tx	pelvis_ty	pelvis_tz	hip_flexion_r	hip_adduction_r	hip_rotation_r	knee_angle_r	ankle_angle_r	subtalar_angle_r	mtp_angle_r	hip_flexion_l	hip_adduction_l	hip_rotation_l	knee_angle_l	ankle_angle_l	subtalar_angle_l	mtp_angle_l	lumbar_extension	lumbar_bending	lumbar_rotation
      6.20500000	     -3.34530522	     10.61710190	     -6.45426165	      1.87779523	      1.01074206	     -0.29476561	      8.95563557	    -14.82411405	     -3.24807966	    -62.47753325	    -11.36124432	     -0.70843135	      0.00000000	     19.93956891	     12.67533562	     -6.18853584	    -16.48895607	      7.97794654	     -8.92951453	      0.00000000	     -7.79370631	    -13.95756496	      5.28878463
      6.21000000	     -3.33501217	     10.69994124	     -6.44325112	      1.88437826	      1.01167860	     -0.29520081	      9.80025330	    -14.84916063	     -3.05514627	    -63.39695146	    -10.39723817	     -0.88037223	      0.00000000	     19.30882237	     12.89866335	     -5.92334379	    -16.05565420	      8.12902005	     -9.07516939	      0.00000000	     -7.78534710	    -13.97985956	      5.07527525
      6.21500000	     -3.31051673	     10.73094055	     -6.40421053	      1.89098546	      1.01270592	     -0.29561795	     10.58967558	    -14.80991295	     -2.90526570	    -64.21703229	     -9.26858380	     -0.94085516	      0.00000000	     18.63002814	     13.07792475	     -5.60424878	    -15.58790494	      8.26505044	     -9.20342579	      0.00000000	     -7.79538204	    -13.94383947	      4.83025086
      6.22000000	     -3.26936201	     10.75930935	     -6.35456345	      1.89751195	      1.01374651	     -0.29614605	     11.36127599	    -14.78477346	     -2.80071222	    -64.97928507	     -7.99117146	     -0.91337532	      0.00000000	     17.92294902	     13.27827148	     -5.18237265	    -15.08650643	      8.27198324	     -9.53991865	      0.00000000	     -7.84183304	    -13.88916532	      4.58753621
      6.22500000	     -3.22963734	     10.69852171	     -6.25964569	      1.90401733	      1.01483979	     -0.29665162	     12.08439107	    -14.65432030	     -2.74828624	    -65.64535640	     -6.60469819	     -0.76047971	      0.00000000	     17.20994177	     13.38295524	     -4.78352700	    -14.61560795	      8.36610208	     -9.73471967	      0.00000000	     -7.90351552	    -13.73209900	      4.29558643
      6.23000000	     -3.16629402	     10.65949826	     -6.14725508	      1.91059688	      1.01598399	     -0.29721785	     12.76193036	    -14.56271293	     -2.74575916	    -66.22721696	     -5.17414049	     -0.59085166	      0.00000000	     16.41963858	     13.53177395	     -4.20867111	    -14.04852360	      8.29964511	    -10.11529425	      0.00000000	     -7.97704374	    -13.60030797	      3.98914744
      6.23500000	     -3.09530793	     10.54108199	     -6.01221423	      1.91710025	      1.01716303	     -0.29779736	     13.40009798	    -14.38449966	     -2.78769364	    -66.72328509	     -3.72291001	     -0.37582766	      0.00000000	     15.61979021	     13.59649617	     -3.63073260	    -13.50238205	      8.26228874	    -10.47595259	      0.00000000	     -8.08370402	    -13.37102966	      3.67707686
      6.24000000	     -3.04553790	     10.42151791	     -5.84231026	      1.92361070	      1.01830055	     -0.29840190	     14.03943668	    -14.21014619	     -2.87384940	    -67.15037111	     -2.26393628	     -0.12745704	      0.00000000	     14.83768288	     13.65256657	     -3.06069718	    -12.95892676	      8.23792988	    -10.77118666	      0.00000000	     -8.16425261	    -13.13871207	      3.32421773
      6.24500000	     -2.98433847	     10.25635064	     -5.66161070	      1.93009108	      1.01946271	     -0.29903638	     14.64397955	    -13.99107980	     -2.99531916	    -67.49509934	     -0.85667423	      0.10655505	      0.00000000	     14.02583172	     13.66294046	     -2.42333556	    -12.39407108	      8.17097024	    -11.14353207	      0.00000000	     -8.26777578	    -12.84911094	      2.97802287
      6.25000000	     -2.94482125	     10.07090962	     -5.44624815	      1.93656586	      1.02060350	     -0.29968862	     15.24278198	    -13.75537025	     -3.16525890	    -67.76153264	      0.51557422	      0.34851984	      0.00000000	     13.23938972	     13.64095302	     -1.83810652	    -11.84300988	      8.10494483	    -11.44446345	      0.00000000	     -8.34831982	    -12.53424905	      2.62184397
      6.25500000	     -2.89003906	      9.86387327	     -5.23338470	      1.94299498	      1.02172200	     -0.30035642	     15.82238865	    -13.49922232	     -3.34975035	    -67.96768256	      1.77831001	      0.53816635	      0.00000000	     12.42029821	     13.59302695	     -1.14477958	    -11.26688626	      8.02844071	    -11.81867212	      0.00000000	     -8.45692360	    -12.19425239	      2.25826795
      6.26000000	     -2.84830775	      9.63366905	     -5.00060162	      1.94941320	      1.02282146	     -0.30102733	     16.39386042	    -13.22211292	     -3.57016591	    -68.09942230	      2.96712274	      0.71214306	      0.00000000	     11.61774512	     13.50804693	     -0.49711882	    -10.69894759	      7.95040726	    -12.14578721	      0.00000000	     -8.55145859	    -11.82701926	      1.89658961
      6.26500000	     -2.81114702	      9.38449788	     -4.76066771	      1.95580629	      1.02388758	     -0.30170042	     16.95905165	    -12.92702978	     -3.81275737	    -68.16665762	      4.06292218	      0.85306230	      0.00000000	     10.81734722	     13.39222647	      0.15849795	    -10.12699151	      7.86748889	    -12.47386866	      0.00000000	     -8.64428898	    -11.43801969	      1.53843217
      6.27000000	     -2.78447006	      9.12272735	     -4.51007084	      1.96217181	      1.02490769	     -0.30236955	     17.52418240	    -12.62087330	     -4.07687072	    -68.17198791	      5.07870158	      0.97431939	      0.00000000	     10.03157650	     13.25022953	      0.79985098	     -9.55933713	      7.78718037	    -12.77862275	      0.00000000	     -8.72837264	    -11.03594590	      1.18193899
      6.27500000	     -2.76148433	      8.84849081	     -4.25877840	      1.96851801	      1.02587858	     -0.30302659	     18.08535131	    -12.30155454	     -4.35281927	    -68.11825629	      6.01837757	      1.07273467	      0.00000000	      9.25021285	     13.08276474	      1.43665780	     -8.98830060	      7.70617253	    -13.08483874	      0.00000000	     -8.80827696	    -10.62082488	      0.83208561
      6.28000000	     -2.75771950	      8.55878711	     -4.00085443	      1.97484204	      1.02680490	     -0.30366480	     18.65412098	    -11.96264327	     -4.63686270	    -68.00019761	      6.89868050	      1.17820186	      0.00000000	      8.49959568	     12.88507101	      2.01087112	     -8.42825967	      7.61800291	    -13.35425196	      0.00000000	     -8.86801327	    -10.18903511	      0.47486825
      6.28500000	     -2.74624033	      8.26768490	     -3.74694411	      1.98115036	      1.02767000	     -0.30428735	     19.20928765	    -11.62288211	     -4.92665995	    -67.82722642	      7.72902447	      1.25511736	      0.00000000	      7.73484844	     12.67540907	      2.63682536	     -7.85278268	      7.52662714	    -13.66608157	      0.00000000	     -8.93752547	     -9.75949593	      0.13966921
      6.29000000	     -2.71962813	      7.98182166	     -3.50492564	      1.98743327	      1.02847201	     -0.30488157	     19.74772339	    -11.28689071	     -5.21168799	    -67.60439284	      8.52494353	      1.31711698	      0.00000000	      6.95390132	     12.46034520	      3.30225184	     -7.26831683	      7.43665517	    -14.02161496	      0.00000000	     -9.02502059	     -9.34180409	     -0.16984096
      6.29500000	     -2.72399862	      7.67815300	     -3.25432424	      1.99368645	      1.02921507	     -0.30544197	     20.30270951	    -10.92269160	     -5.49372193	    -67.31363667	      9.29467068	      1.40377534	      0.00000000	      6.22523107	     12.21273535	      3.86412311	     -6.70613850	      7.34081850	    -14.31975266	      0.00000000	     -9.08064414	     -8.90356145	     -0.50326662
